<svg xmlns="http://www.w3.org/2000/svg" width="150" height="30" viewBox="0 0 150 30"><path fill="#666" d="M56.954 3.799l-.702-.701-3.743 3.743-3.743-3.743-.701.701 3.743 3.743-3.743 3.743.701.701 3.743-3.743 3.743 3.743.702-.701-3.744-3.743zM11.297 19.413l-.701-.701-3.087 3.087-3.087-3.087-.701.701L6.808 22.5l-3.087 3.087.701.701 3.087-3.087 3.087 3.087.701-.701L8.21 22.5z"/><g fill="#F00"><path d="M26.297 19.413l-.701-.701-3.087 3.087-3.087-3.087-.701.701 3.087 3.087-3.087 3.087.701.701 3.087-3.087 3.087 3.087.701-.701L23.21 22.5z"/><path d="M22.013 18.062h.992V21h-.992zm1.996 3.942h2.938v.992h-2.938zM22.013 24h.992v2.938h-.992zm-3.941-1.996h2.938v.992h-2.938z"/></g><path fill="#666" d="M32.041 22.004h10.938v.992H32.041zM16.034 7.046h12.95v.992h-12.95zm0-4.026h12.95v.992h-12.95zm0 8.052h12.95v.992h-12.95zm26.944-4.026h-4.973V2.073h-.992v4.973h-4.972v.992h4.972v4.973h.992V8.038h4.973zm61.042 0h-6.014V1.031h-.992v6.015h-6.017v.992h6.017v6.015h.992V8.038h6.014zM90.997 22.004h13.021v.992H90.997z"/><circle fill="#5BB85C" cx="52.509" cy="22.5" r="4.408"/><circle fill="#5BB85C" cx="67.509" cy="7.542" r="4.408"/><path fill="#E2E0DB" d="M82.51 12.45c-2.705 0-4.908-2.202-4.908-4.908s2.203-4.908 4.908-4.908c2.706 0 4.908 2.202 4.908 4.908s-2.202 4.908-4.908 4.908zm0-8.816c-2.154 0-3.908 1.753-3.908 3.908s1.754 3.908 3.908 3.908c2.155 0 3.908-1.753 3.908-3.908s-1.753-3.908-3.908-3.908z"/><circle fill="#F00" cx="67.509" cy="22.5" r="4.408"/><circle fill="#FC0" cx="82.509" cy="22.5" r="4.408"/><g fill="#666"><path d="M7.509 1.118C3.967 1.118 1.085 4 1.085 7.542s2.882 6.424 6.424 6.424 6.424-2.882 6.424-6.424-2.881-6.424-6.424-6.424zm0 11.856c-2.995 0-5.432-2.437-5.432-5.432S4.514 2.11 7.509 2.11c2.995 0 5.432 2.437 5.432 5.432s-2.437 5.432-5.432 5.432z"/><path d="M7.013 7.026h.992v4.031h-.992zm0-3h.992v1.016h-.992z"/></g><path fill="#E2E0DB" d="M108.468 9.659l4.042-4.234 4.042 4.234zm23.087-4.234l-4.043 4.234-4.041-4.234z"/><path fill="#666" d="M140.605 14.976l-.701-.702 6.735-6.732L139.904.81l.701-.702 7.435 7.434zm-2.173 7.524l7.435-7.434.701.702-6.734 6.732 6.734 6.732-.701.702zm-28.864 0l5.405-5.405.509.509-4.896 4.896 4.896 4.896-.509.509zm15.496 5.405l-.509-.509 4.896-4.896-4.896-4.896.509-.509 5.407 5.405z"/></svg>